# xmcd
#
# Track frame offsets: 
#        150
#        10750
#        23964
#        33409
#        47876
#        58838
#        78412
#        89579
#        106735
#        117923
#        134506
#        146414
#        168186
#        179606
#        195326
#        206303
#        223735
#        236592
#        257993
#        269974
#        284109
#        295387
#        307783
#
# Disc length: 4289 seconds
#
# Revision: 0
# Processed by: cddbd v1.5.2PL0 Copyright (c) Steve Scherf et al.
# Submitted via: ExactAudioCopyFreeDBPlugin 1.0
#
DISCID=5f10bf17
DTITLE=Various Artist - Walking Dream
DYEAR=2010
DGENRE=Country
TTITLE0=Patsy Cline - I Love You Honey
TTITLE1=Kenny Rogers and Dottie West - You And Me
TTITLE2=Patsy Cline - Love Me Honey Do
TTITLE3=Kenny Rogers - Love The World Away
TTITLE4=Patsy Cline - I Don`t Wanna
TTITLE5=Kenny Rogers - She Belives In Me
TTITLE6=Patsy Cline - Don´t Ever Leave Me Again
TTITLE7=Kenny Rogers - Lady
TTITLE8=Patsy Cline - A Stranger In My Arms
TTITLE9=Kenny Rogers and Kim Carnes - Don´t Fall In Love With A Dreamer
TTITLE10=Patsy Cline - Let The Teardrops Fall
TTITLE11=Kenny Rogers - Have I Told You Latlely That I Love You
TTITLE12=Patsy Cline - Hungry For Love
TTITLE13=Kenny Rogers - I Don´t Nrrd You
TTITLE14=Patsy Cline - I Cried All The Way To The Altar
TTITLE15=Kenny Rogers and Sheena Easton - We´ve Got Tonight
TTITLE16=Patsy Cline - Yes, I Understand
TTITLE17=Kenny Rogers - Always And Forever
TTITLE18=Patsy Cline - If I Could Stay Asleep
TTITLE19=Kenny Rogers - You Light Up My Life
TTITLE20=Patsy Cline - Cry Not For Me
TTITLE21=Kenny Rogers - Goodby Marie
TTITLE22=Patsy Cline - A Church, A Courtroom, And Then Goodbye
EXTD=
EXTT0=
EXTT1=
EXTT2=
EXTT3=
EXTT4=
EXTT5=
EXTT6=
EXTT7=
EXTT8=
EXTT9=
EXTT10=
EXTT11=
EXTT12=
EXTT13=
EXTT14=
EXTT15=
EXTT16=
EXTT17=
EXTT18=
EXTT19=
EXTT20=
EXTT21=
EXTT22=
PLAYORDER=
